<?xml version="1.0" standalone="no"?>
<!DOCTYPE svg PUBLIC "-//W3C//DTD SVG 20010904//EN"
 "http://www.w3.org/TR/2001/REC-SVG-20010904/DTD/svg10.dtd">
<svg version="1.0" xmlns="http://www.w3.org/2000/svg"
 width="640.000000pt" height="640.000000pt" viewBox="0 0 640.000000 640.000000"
 preserveAspectRatio="xMidYMid meet">
<metadata>
Created by potrace 1.15, written by Peter Selinger 2001-2017
</metadata>
<g transform="translate(0.000000,640.000000) scale(0.100000,-0.100000)"
fill="#000000" stroke="none">
<path d="M3070 6382 c-33 -22 -90 -81 -90 -93 0 -16 -20 -10 -38 12 -31 37
-93 63 -152 63 -71 1 -140 -37 -172 -94 -26 -45 -27 -46 -85 -24 -57 22 -109
8 -153 -42 l-31 -36 -37 18 c-47 23 -136 23 -179 0 -40 -20 -78 -60 -99 -104
-13 -28 -19 -32 -37 -25 -61 22 -141 0 -172 -48 -15 -22 -25 -28 -40 -23 -125
39 -169 37 -250 -10 -61 -36 -102 -94 -116 -167 -11 -58 -12 -59 -46 -59 -69
0 -140 -54 -163 -124 -10 -32 -13 -34 -69 -38 -66 -5 -109 -31 -158 -95 -25
-33 -28 -44 -28 -118 0 -80 0 -81 -30 -96 -16 -7 -37 -27 -45 -44 -19 -38 -28
-45 -61 -45 -61 0 -139 -92 -139 -164 0 -19 -7 -25 -37 -30 -113 -18 -188
-140 -153 -247 13 -37 12 -41 -9 -56 -26 -18 -51 -70 -51 -108 0 -21 -5 -25
-28 -25 -46 0 -134 -51 -169 -98 -62 -82 -70 -176 -24 -268 29 -57 29 -58 10
-72 -34 -24 -52 -71 -47 -126 5 -50 5 -52 -35 -81 -64 -47 -81 -77 -85 -148
-4 -69 15 -123 57 -161 21 -19 28 -46 13 -46 -17 0 -42 -61 -42 -103 0 -35 6
-53 26 -77 24 -28 26 -35 16 -66 -7 -25 -7 -44 0 -67 10 -26 9 -32 -6 -41 -62
-37 -116 -122 -116 -183 0 -61 71 -168 122 -185 9 -3 8 -13 -5 -41 -32 -67
-24 -132 24 -182 l29 -31 -23 -44 c-28 -58 -28 -130 1 -186 23 -44 74 -94 98
-94 17 0 18 -13 3 -55 -17 -46 -3 -100 36 -144 l35 -38 -21 -44 c-26 -52 -29
-147 -6 -200 31 -74 105 -137 183 -153 28 -6 32 -12 38 -52 10 -76 55 -139
118 -165 26 -11 28 -16 28 -66 0 -125 92 -212 225 -213 60 0 61 -1 70 -32 7
-22 20 -38 42 -48 26 -12 33 -21 33 -44 0 -75 68 -154 140 -163 35 -5 38 -8
43 -45 8 -59 54 -126 107 -155 39 -21 54 -24 106 -19 59 6 62 5 97 -28 20 -19
51 -36 71 -40 25 -5 36 -12 36 -25 0 -46 34 -126 71 -166 77 -83 188 -104 294
-54 l45 21 21 -26 c32 -40 76 -59 126 -53 41 4 44 3 59 -29 52 -110 199 -147
300 -76 46 33 64 39 64 23 0 -5 15 -19 34 -30 46 -29 104 -27 149 3 35 24 38
24 68 9 27 -13 37 -14 66 -4 19 7 36 11 38 9 1 -1 12 -21 23 -43 19 -37 47
-70 86 -103 10 -8 55 -12 139 -12 l124 0 40 38 c22 20 45 46 50 57 11 18 13
17 51 -17 50 -45 101 -62 163 -55 59 7 132 54 155 100 9 18 18 33 19 35 2 2
26 -4 53 -14 73 -26 131 -7 176 58 l15 20 43 -21 c104 -50 227 -1 275 110 11
25 13 26 51 16 56 -15 111 3 152 49 l31 36 37 -18 c23 -11 60 -18 97 -17 123
0 226 89 249 215 6 33 11 38 44 44 79 14 135 59 161 126 8 21 18 26 60 31 62
7 97 25 143 73 44 45 63 106 55 177 -6 51 -6 52 26 67 18 8 39 29 47 47 11 24
23 32 50 37 78 13 134 72 146 153 6 38 9 43 33 43 103 2 195 141 161 245 -11
34 -10 39 13 63 29 30 47 72 47 108 0 20 5 24 28 24 41 0 124 43 155 80 43 50
59 88 64 151 5 50 1 66 -25 124 l-31 66 35 36 c36 35 36 37 31 100 -2 34 -1
63 4 63 21 0 89 75 105 115 30 80 15 139 -60 240 -6 8 -2 20 13 36 12 13 24
34 28 47 9 38 -4 102 -26 126 -18 19 -20 30 -15 69 4 30 2 58 -6 78 -12 28
-12 33 6 45 40 28 67 61 90 112 29 64 30 77 3 146 -20 55 -86 126 -116 126
-17 0 -16 20 3 59 24 48 14 113 -26 162 l-31 40 20 42 c26 53 27 119 2 172
-19 43 -82 105 -106 105 -18 0 -19 13 -4 55 17 47 3 100 -37 145 -34 37 -34
40 -20 62 9 14 20 48 26 76 20 109 -36 223 -133 268 -29 13 -62 24 -74 24 -18
0 -23 7 -28 38 -4 20 -9 50 -12 66 -6 34 -73 103 -108 112 -22 6 -25 11 -25
55 0 130 -92 219 -225 219 -48 0 -65 4 -65 14 0 20 -40 66 -66 76 -18 7 -24
17 -24 40 0 73 -66 147 -140 157 -32 5 -40 10 -40 27 0 117 -119 214 -233 190
-40 -9 -44 -7 -78 27 -22 22 -50 39 -71 43 -32 6 -36 10 -42 47 -10 59 -51
134 -91 165 -75 57 -179 70 -266 33 l-49 -21 -40 36 c-40 36 -55 41 -121 37
-31 -2 -38 1 -48 27 -46 111 -232 151 -311 67 -30 -31 -37 -31 -71 1 -42 40
-112 44 -162 10 -36 -24 -40 -25 -67 -11 -16 8 -39 15 -52 15 -15 0 -31 12
-45 34 -12 19 -42 48 -67 65 -43 30 -49 31 -143 30 -74 0 -104 -4 -123 -17z
m235 -97 c52 -30 80 -67 105 -138 20 -56 27 -51 34 23 4 48 14 57 45 41 14 -8
21 -23 23 -54 l3 -42 16 36 c34 75 116 103 172 59 21 -17 27 -31 29 -73 l3
-52 21 36 c63 106 183 129 272 53 l42 -36 -6 -71 c-5 -71 -5 -72 12 -42 40 72
91 97 146 71 47 -23 62 -50 44 -79 -8 -12 -17 -38 -21 -57 l-8 -35 50 47 c120
112 285 85 357 -59 21 -43 20 -53 -10 -107 -15 -26 -24 -49 -22 -52 3 -2 22 9
43 26 87 69 185 10 173 -104 -7 -58 8 -57 37 2 19 40 21 41 70 42 61 0 114
-32 139 -83 22 -48 21 -53 -24 -105 -22 -25 -39 -47 -37 -48 2 -2 22 5 45 16
90 44 192 6 208 -76 5 -27 1 -40 -20 -65 -30 -35 -28 -46 2 -30 32 17 87 13
104 -6 31 -37 30 -55 -4 -91 -32 -34 -32 -35 -8 -28 99 26 116 28 158 17 60
-17 107 -62 127 -121 19 -58 14 -95 -21 -159 -13 -24 -22 -46 -20 -49 7 -7 75
37 85 56 9 15 12 16 38 2 43 -24 73 -76 73 -127 0 -45 -26 -109 -54 -132 -9
-8 -16 -17 -16 -22 0 -13 71 18 97 42 32 31 76 17 133 -40 52 -52 75 -117 64
-179 -10 -55 -19 -67 -62 -80 -21 -6 -49 -23 -62 -37 -26 -28 -17 -31 40 -15
46 13 92 -2 125 -41 39 -47 33 -129 -9 -129 -11 0 -43 -11 -71 -24 l-50 -24
55 -1 c109 -2 189 -66 198 -159 7 -75 -15 -114 -71 -131 -56 -16 -53 -27 9
-34 87 -9 134 -89 97 -165 -14 -28 -27 -39 -55 -47 -46 -13 -59 -25 -27 -25
13 0 44 -9 68 -20 162 -74 151 -291 -16 -352 -40 -15 -43 -28 -5 -28 36 0 68
-23 76 -55 10 -40 -9 -65 -49 -65 -44 0 -54 -16 -16 -25 17 -3 44 -20 60 -38
36 -36 41 -82 14 -128 -15 -26 -23 -29 -65 -29 -54 0 -62 -12 -19 -29 36 -16
87 -68 100 -104 25 -67 -1 -156 -59 -199 -21 -15 -31 -16 -63 -7 -22 6 -43 6
-53 1 -13 -7 -10 -11 15 -22 69 -28 93 -114 47 -166 l-23 -28 -53 17 c-29 10
-55 15 -58 12 -2 -2 18 -29 46 -59 90 -99 93 -213 8 -301 -51 -53 -116 -77
-143 -52 -10 8 -31 19 -48 23 l-30 7 33 -37 c25 -29 32 -45 32 -80 0 -74 -55
-115 -141 -103 -49 6 -42 -6 22 -38 48 -25 49 -26 49 -71 0 -53 -18 -92 -60
-127 -50 -42 -65 -43 -112 -3 -60 51 -72 49 -38 -6 13 -22 20 -51 20 -85 0
-45 -4 -56 -33 -87 -46 -49 -79 -55 -118 -22 -43 36 -52 32 -29 -11 26 -49 25
-69 -5 -98 -31 -32 -50 -31 -87 0 -17 14 -32 24 -35 22 -2 -2 6 -25 17 -51 76
-177 -87 -329 -261 -243 -60 30 -63 16 -9 -43 22 -24 40 -46 40 -49 0 -4 -13
-23 -30 -42 -52 -64 -155 -72 -223 -19 -14 11 -30 20 -37 20 -14 0 27 -70 52
-88 53 -39 -34 -175 -129 -201 -44 -13 -68 -13 -113 -5 -25 6 -36 15 -50 48
-18 42 -56 84 -66 73 -3 -3 -1 -14 5 -25 6 -12 11 -41 11 -66 0 -36 -6 -52
-29 -78 -25 -28 -35 -32 -82 -33 -51 0 -53 1 -59 30 -8 35 -35 91 -49 100 -6
3 -8 -13 -4 -43 13 -115 -65 -212 -171 -212 -58 0 -83 15 -107 67 l-23 48 -6
-52 c-10 -92 -72 -142 -149 -121 -46 13 -61 25 -61 52 -1 18 -38 99 -40 86 0
-3 -3 -29 -5 -57 -5 -68 -29 -117 -73 -151 -29 -22 -45 -27 -96 -27 -51 0 -68
5 -103 29 -40 27 -43 32 -44 75 -1 83 -13 91 -37 25 -74 -201 -313 -220 -407
-33 -14 26 -25 55 -25 64 0 8 -4 15 -10 15 -5 0 -10 -8 -10 -19 0 -31 -39 -71
-69 -71 -36 0 -51 17 -51 56 0 45 -14 50 -29 9 -27 -75 -111 -99 -170 -49 -28
23 -30 29 -24 72 6 51 4 50 -40 -9 -48 -67 -139 -95 -210 -65 -44 18 -101 83
-91 105 4 9 9 36 11 61 l4 45 -22 -36 c-43 -72 -116 -90 -169 -41 l-31 27 23
52 c12 29 19 55 16 58 -3 3 -23 -11 -44 -31 -52 -48 -98 -66 -165 -67 -69 0
-137 35 -174 91 -39 60 -41 87 -11 143 15 27 25 49 22 49 -3 0 -22 -11 -42
-25 -92 -63 -186 -1 -170 112 l6 47 -24 -23 c-13 -13 -27 -34 -30 -47 -6 -21
-12 -24 -57 -24 -59 0 -100 19 -128 59 -38 53 -37 82 3 120 46 45 48 68 3 41
-69 -42 -168 -15 -202 57 -20 42 -19 56 6 79 11 10 25 27 31 37 9 17 8 17 -21
3 -41 -22 -73 -20 -105 5 -33 26 -33 59 -1 89 35 33 31 42 -10 24 -19 -7 -61
-14 -93 -14 -50 0 -66 5 -101 31 -48 34 -81 95 -81 149 0 37 31 113 57 142 9
10 13 18 9 18 -15 0 -72 -34 -89 -53 -22 -26 -60 -15 -89 24 -44 59 -40 134
11 206 17 24 26 43 21 43 -20 0 -59 -20 -85 -44 -15 -14 -31 -26 -34 -26 -4 0
-31 15 -61 33 -60 36 -94 85 -104 151 -8 55 14 130 39 134 39 6 70 23 89 49
l19 26 -29 -9 c-16 -4 -48 -8 -71 -8 -72 -1 -125 69 -108 143 5 24 12 29 46
34 21 3 54 14 72 26 l32 21 -55 0 c-98 1 -168 49 -190 130 -16 61 10 150 45
150 8 0 26 5 40 12 29 13 17 28 -23 28 -66 0 -118 64 -109 132 6 48 31 78 66
78 14 1 42 9 61 20 l35 19 -43 1 c-75 0 -146 41 -178 102 -36 69 3 201 64 213
15 3 41 10 57 14 l30 8 -37 16 c-47 20 -66 56 -50 92 9 20 19 25 47 25 45 0
45 12 0 29 -71 25 -98 108 -55 164 17 21 31 27 73 29 l52 3 -45 23 c-80 43
-114 99 -108 178 7 82 73 158 117 134 25 -13 81 -13 81 0 0 6 -6 10 -14 10 -8
0 -31 15 -50 34 -30 28 -36 40 -36 74 0 28 7 49 23 68 l23 26 47 -16 c77 -26
84 -20 34 27 -85 79 -107 170 -63 262 27 59 57 88 110 110 37 16 40 15 82 -7
53 -28 65 -19 30 22 -28 34 -35 94 -16 131 18 32 68 52 117 45 24 -3 43 -2 43
3 0 8 -49 35 -82 45 -14 4 -18 16 -18 56 0 61 19 100 62 133 48 36 74 41 90
19 17 -24 67 -56 75 -48 3 3 -1 14 -9 23 -9 10 -21 36 -27 59 -19 72 17 142
85 164 30 10 36 9 61 -14 43 -40 52 -36 28 10 -21 41 -19 71 10 99 30 31 40
31 82 -1 19 -14 36 -24 39 -22 2 3 -5 23 -16 46 -26 53 -26 124 0 176 44 90
159 122 258 72 29 -15 52 -22 52 -16 0 6 -18 30 -41 55 -46 50 -46 69 2 109
64 54 143 54 217 -1 48 -36 38 12 -15 69 -34 36 -25 81 27 141 51 57 117 82
191 72 42 -6 52 -11 60 -34 17 -46 30 -67 51 -80 27 -17 29 -12 13 36 -28 80
25 163 105 163 42 0 55 -11 64 -55 4 -17 17 -44 30 -60 l24 -30 -5 65 c-5 78
12 117 70 164 34 27 47 31 102 31 65 0 95 -14 95 -44 0 -9 9 -27 20 -41 l20
-25 0 43 c0 79 48 132 119 132 51 0 77 -18 91 -63 7 -23 18 -50 25 -60 10 -15
13 -8 19 45 8 79 42 132 99 159 51 23 86 24 135 4 60 -26 82 -52 82 -101 0
-72 11 -82 31 -29 33 88 85 143 155 165 45 15 122 3 169 -25z"/>
<path d="M3019 5846 c-2 -3 -39 -6 -82 -7 -70 -2 -80 -5 -79 -29 1 -47 25
-366 27 -368 2 -2 24 0 49 3 l46 7 0 47 0 47 68 11 c56 10 71 17 93 43 15 17
29 48 33 69 10 64 -23 144 -67 160 -34 13 -82 22 -88 17z"/>
<path d="M3324 5830 c-45 -23 -64 -53 -64 -105 0 -71 34 -102 139 -124 24 -5
48 -14 54 -20 16 -16 -4 -45 -32 -49 -29 -5 -78 15 -85 34 -4 9 -21 14 -51 14
-52 0 -58 -14 -25 -68 28 -46 98 -76 160 -69 91 11 135 51 135 126 0 37 -5 48
-32 70 -18 14 -60 33 -94 41 -72 18 -96 42 -65 66 28 20 72 18 88 -5 9 -13 28
-20 58 -23 45 -3 45 -3 42 27 -9 85 -134 131 -228 85z"/>
<path d="M3685 5778 c-4 -18 -22 -102 -41 -187 -19 -85 -32 -157 -29 -160 10
-9 235 -58 239 -52 2 3 6 22 10 42 l6 37 -70 17 c-60 15 -70 20 -70 39 0 42
11 46 75 31 63 -14 75 -10 75 27 0 9 3 23 6 31 4 12 -9 18 -58 29 -63 13 -78
28 -59 57 8 12 18 12 72 -2 35 -9 67 -13 70 -9 9 10 21 82 14 82 -3 0 -56 11
-117 25 -61 14 -112 25 -114 25 -1 0 -5 -15 -9 -32z"/>
<path d="M2377 5733 c-3 -5 -8 -30 -12 -58 -4 -27 -18 -120 -31 -205 -13 -85
-20 -158 -16 -162 4 -4 25 -2 45 4 28 9 42 20 51 43 12 27 23 34 84 52 l70 20
21 -20 c18 -19 23 -19 61 -7 22 7 40 18 40 23 0 8 -60 78 -181 212 -20 22 -49
55 -64 73 -25 30 -58 42 -68 25z"/>
<path d="M4175 5633 c-14 -33 -14 -38 0 -45 22 -13 19 -26 -21 -123 -34 -80
-38 -86 -61 -80 -20 5 -26 0 -39 -31 -8 -20 -12 -40 -7 -44 4 -4 40 -19 78
-35 39 -15 76 -29 83 -32 7 -3 18 10 27 31 17 39 13 56 -11 56 -20 0 -19 5 24
106 35 80 41 89 64 87 21 -1 27 5 38 38 7 21 11 40 9 42 -6 5 -158 67 -164 67
-2 0 -12 -17 -20 -37z"/>
<path d="M1993 5580 c-68 -32 -123 -64 -123 -70 0 -13 28 -70 35 -70 3 0 29
12 59 27 31 15 59 24 62 20 4 -4 2 -78 -3 -164 -6 -87 -9 -159 -8 -161 3 -3
43 15 208 92 l77 37 -15 36 c-9 20 -17 38 -19 40 -1 2 -33 -10 -69 -27 -37
-16 -69 -30 -73 -30 -7 0 3 228 12 293 4 27 2 37 -8 36 -7 0 -68 -27 -135 -59z"/>
<path d="M4515 5318 c-55 -83 -101 -156 -103 -163 -2 -6 15 -23 36 -38 l40
-26 48 72 48 72 11 -60 c12 -66 9 -65 95 -50 l44 8 -47 -66 c-26 -36 -47 -69
-47 -74 0 -9 65 -53 77 -53 5 0 56 72 115 159 130 193 129 193 -27 156 -59
-14 -110 -25 -114 -25 -4 0 -14 46 -21 103 -14 108 -23 138 -43 136 -7 0 -57
-68 -112 -151z"/>
<path d="M1595 5353 c-11 -8 -28 -20 -38 -28 -17 -12 -17 -15 7 -50 31 -45 33
-91 5 -125 l-21 -25 -24 30 c-14 17 -32 42 -42 58 -9 15 -21 27 -26 27 -18 0
-76 -45 -74 -57 5 -20 222 -302 233 -302 6 0 25 12 44 28 l35 28 -39 49 c-59
74 -58 72 -38 83 14 7 37 1 97 -24 l78 -34 43 32 c25 18 44 35 45 38 0 3 -39
21 -87 39 -49 18 -92 37 -98 42 -5 4 -8 26 -6 48 3 43 -26 115 -57 143 -15 14
-19 14 -37 0z"/>
<path d="M3015 5317 c-4 -10 -5 -45 -2 -78 5 -56 4 -60 -25 -84 -22 -19 -41
-25 -76 -25 -65 0 -104 26 -126 84 -20 53 -36 60 -36 15 0 -75 -54 -129 -130
-129 -52 0 -93 24 -117 67 -29 55 -42 40 -23 -26 23 -81 -38 -195 -118 -219
-85 -26 -156 -7 -216 57 -17 17 -32 31 -36 31 -3 0 -4 -17 -2 -38 6 -67 -55
-106 -100 -65 -19 17 -19 16 -11 -12 16 -59 9 -110 -20 -148 -49 -64 -138 -69
-207 -11 -16 14 -30 21 -30 14 0 -20 29 -68 51 -84 25 -17 20 -42 -16 -76 -34
-32 -108 -38 -157 -12 -21 11 -38 16 -38 12 0 -15 51 -69 70 -75 16 -5 20 -16
20 -56 0 -78 -37 -132 -111 -163 -35 -14 -38 -14 -70 10 -30 22 -98 48 -106
40 -2 -1 17 -23 41 -49 79 -80 86 -179 19 -257 -46 -53 -85 -70 -165 -70 -57
0 -61 -1 -47 -16 9 -8 34 -21 55 -29 34 -11 39 -17 42 -48 2 -28 -3 -43 -26
-68 -24 -27 -37 -33 -86 -37 l-58 -5 33 -20 c43 -27 49 -35 49 -70 0 -54 -13
-64 -74 -59 -62 5 -73 -8 -23 -26 39 -14 92 -63 114 -106 20 -39 20 -123 0
-162 -25 -48 -43 -58 -105 -56 -31 2 -64 -2 -72 -7 -16 -11 -20 -9 53 -31 106
-33 166 -155 123 -253 -21 -47 -55 -81 -110 -109 l-49 -25 33 -6 c18 -4 50 -2
71 3 28 8 43 7 57 -1 50 -31 67 -115 35 -171 -11 -17 -38 -38 -66 -51 -26 -12
-47 -25 -47 -29 0 -5 23 -8 51 -8 46 0 55 -4 90 -39 35 -35 39 -43 39 -92 0
-49 -3 -55 -45 -96 -48 -46 -44 -51 29 -31 77 20 158 -15 203 -90 44 -71 20
-207 -43 -249 -30 -19 -22 -36 11 -21 31 14 77 -4 95 -36 10 -20 9 -28 -6 -52
-19 -28 -19 -28 1 -19 34 15 118 16 145 3 65 -34 89 -131 50 -196 -11 -18 -20
-37 -20 -43 0 -15 49 17 77 50 19 22 25 23 47 13 58 -26 83 -119 50 -183 -8
-17 -14 -33 -11 -35 9 -9 55 37 72 72 l17 37 60 -6 c67 -6 118 -38 151 -96 19
-31 19 -31 -7 -83 -14 -29 -26 -63 -26 -77 0 -24 3 -23 40 21 123 143 339 69
344 -118 0 -30 4 -54 8 -54 11 0 38 56 38 80 0 30 41 46 79 31 48 -21 72 -54
80 -113 l6 -53 18 43 c9 23 17 51 17 62 0 25 42 37 76 21 22 -10 24 -15 18
-53 -4 -24 -7 -45 -6 -48 1 -85 10 -91 34 -22 31 86 98 136 183 136 84 0 141
-40 182 -130 l27 -59 8 35 c4 19 5 49 2 67 -3 17 -3 40 0 50 9 29 59 53 110
53 39 0 51 -5 81 -35 19 -20 35 -46 35 -58 0 -15 10 -6 36 36 40 63 75 87 129
87 49 0 89 -22 115 -65 12 -19 24 -35 26 -35 3 0 2 33 -1 73 -5 63 -3 77 17
111 13 22 40 53 61 70 34 27 46 31 100 31 71 -1 105 -16 161 -72 l38 -38 -6
40 c-12 70 49 121 94 80 16 -15 17 -11 12 54 l-5 71 40 40 c37 37 45 40 95 40
45 0 59 -5 88 -30 19 -16 38 -29 42 -30 14 0 -6 41 -38 79 -39 46 -36 60 20
99 40 28 90 28 140 1 21 -11 40 -18 43 -16 7 8 -57 76 -78 82 -14 5 -19 16
-19 45 0 74 39 133 112 171 35 18 36 18 61 -2 31 -24 90 -49 114 -49 13 0 9 9
-19 33 -55 48 -78 93 -78 155 0 121 78 192 212 192 61 0 62 0 39 17 -14 9 -41
22 -60 29 -93 31 -9 164 95 152 43 -5 43 5 -1 30 -39 24 -53 61 -37 97 10 21
19 24 74 27 l63 3 -45 21 c-106 50 -156 162 -117 257 8 18 33 49 56 70 32 29
49 37 79 37 51 0 112 11 112 20 0 4 -17 10 -38 13 -49 8 -112 50 -142 95 -20
28 -25 48 -25 98 0 53 4 69 30 106 21 28 49 52 83 68 28 14 52 29 52 34 0 5
-27 6 -59 3 -58 -5 -60 -4 -69 22 -16 45 -4 78 37 103 l36 22 -50 6 c-67 9
-81 16 -105 55 -32 51 -27 73 23 94 23 11 51 26 62 36 19 16 19 16 -17 10 -20
-3 -58 -1 -84 5 -160 36 -206 219 -85 334 17 17 31 33 31 37 0 13 -74 -13
-107 -37 -30 -23 -35 -24 -65 -11 -65 28 -118 104 -118 169 0 22 10 44 30 67
34 39 39 56 11 41 -50 -26 -131 -3 -168 50 -15 21 -14 23 10 44 23 19 64 86
53 86 -3 0 -22 -11 -42 -25 -50 -34 -92 -40 -139 -20 -61 24 -80 57 -80 138 0
67 -6 81 -23 52 -6 -13 -14 -14 -35 -6 -38 15 -60 53 -52 91 8 38 0 38 -31 1
-70 -84 -213 -94 -284 -20 -45 47 -62 103 -54 177 l7 67 -35 -45 c-82 -109
-225 -74 -243 59 -8 56 -20 59 -30 8 -15 -71 -92 -117 -163 -97 -59 15 -66 29
-48 85 17 49 19 88 7 119 -6 15 -11 10 -25 -28 -38 -100 -113 -152 -203 -143
-87 9 -138 56 -181 167 -9 22 -11 23 -17 7z m61 -198 c54 -61 175 -77 260 -34
l48 25 26 -24 c55 -51 161 -59 208 -16 28 26 32 25 65 -9 45 -48 108 -61 183
-36 19 6 22 2 28 -38 14 -95 96 -168 196 -175 67 -5 135 15 165 48 18 19 18
19 52 -10 18 -17 40 -30 48 -30 11 0 15 -12 15 -40 0 -84 59 -153 143 -166 30
-5 40 -13 54 -41 16 -34 70 -83 91 -83 7 0 12 -17 12 -41 0 -110 60 -204 149
-234 l49 -16 -5 -54 c-9 -82 11 -136 67 -189 25 -24 61 -47 78 -51 30 -6 32
-9 32 -51 0 -58 20 -96 66 -124 32 -21 35 -26 30 -56 -4 -20 -1 -47 9 -70 15
-36 14 -37 -15 -70 -47 -54 -62 -92 -62 -155 0 -60 28 -127 66 -159 23 -18 20
-26 -20 -50 -45 -29 -80 -82 -94 -144 -15 -67 7 -143 56 -191 36 -36 36 -36
20 -70 -11 -22 -14 -47 -11 -72 5 -35 3 -40 -26 -58 -50 -31 -71 -66 -71 -117
0 -42 -2 -45 -34 -57 -48 -17 -101 -66 -125 -114 -16 -31 -20 -54 -17 -109 l3
-70 -52 -20 c-91 -34 -143 -114 -143 -220 0 -44 -2 -47 -37 -65 -25 -12 -45
-33 -60 -63 -22 -41 -28 -46 -70 -52 -75 -11 -133 -80 -133 -157 0 -37 -3 -42
-35 -55 -19 -8 -38 -22 -41 -31 -8 -21 -27 -19 -49 5 -44 49 -164 61 -237 24
-65 -33 -118 -106 -118 -161 0 -36 -10 -40 -55 -23 -45 17 -105 1 -150 -41
-40 -37 -40 -37 -64 -18 -63 51 -152 46 -210 -11 -35 -36 -42 -37 -67 -9 -67
76 -218 77 -295 3 l-26 -25 -41 21 c-36 19 -46 20 -77 10 -32 -11 -39 -10 -58
8 -36 32 -63 42 -116 42 -36 0 -51 4 -51 13 0 8 -14 33 -31 56 -42 59 -121 95
-192 88 -29 -2 -59 -7 -68 -11 -11 -5 -20 3 -33 32 -25 55 -64 96 -115 122
-37 19 -56 22 -109 17 -58 -4 -64 -3 -72 17 -11 29 -49 62 -92 80 -30 13 -37
22 -43 53 -12 74 -80 126 -161 125 -30 0 -54 4 -54 8 0 5 -14 26 -32 46 -26
29 -30 39 -20 52 62 88 53 223 -19 292 -35 33 -98 60 -143 60 -29 0 -37 3 -33
14 28 72 6 154 -52 197 -28 21 -30 24 -17 44 47 72 38 161 -20 213 l-38 33 17
27 c70 107 68 193 -8 298 -15 20 -14 24 10 52 35 42 55 94 55 144 0 51 -36
133 -74 167 -19 18 -23 27 -14 32 8 5 13 31 13 72 0 60 1 63 30 77 43 21 75
74 75 125 0 36 4 44 23 49 13 3 42 19 66 36 60 44 94 119 89 201 l-3 60 36 13
c93 32 151 116 151 217 0 36 4 59 11 59 24 0 77 47 92 81 15 32 23 38 70 48
40 9 62 21 84 46 33 38 56 105 46 135 -4 14 -2 20 9 20 8 0 31 14 50 30 l34
31 45 -31 c61 -44 146 -52 211 -21 65 32 102 74 122 142 14 45 22 58 33 54 68
-26 151 -8 190 41 l20 26 53 -26 c28 -14 65 -26 80 -26 40 0 88 22 117 54 30
32 33 32 57 5z"/>
<path d="M2309 4737 c-84 -32 -70 -19 -405 -359 -176 -177 -259 -269 -277
-304 -73 -144 -45 -315 71 -429 50 -50 220 -135 269 -135 46 0 97 29 116 67 8
15 25 61 38 101 22 69 24 72 53 72 17 0 37 -4 44 -9 12 -7 50 -202 97 -502
l16 -95 -44 -80 c-56 -100 -80 -180 -80 -269 -1 -114 28 -172 81 -158 21 5 22
2 22 -49 0 -76 35 -103 75 -58 10 11 21 20 25 20 4 0 13 -27 19 -59 13 -65 42
-111 71 -111 21 0 34 15 47 55 11 33 14 34 111 14 37 -8 62 -19 62 -26 0 -27
66 -146 104 -191 23 -25 68 -63 101 -84 33 -21 53 -38 45 -38 -8 0 -91 14
-185 30 -211 37 -239 38 -289 4 -57 -39 -66 -71 -66 -240 0 -133 2 -150 22
-186 24 -42 79 -78 120 -78 13 0 117 16 231 36 191 34 209 35 225 21 48 -44
242 -49 324 -9 l48 24 195 -36 c108 -20 210 -36 226 -36 47 0 102 34 127 78
20 36 22 53 22 185 0 167 -10 203 -67 242 -49 33 -78 32 -288 -5 -94 -16 -177
-30 -185 -30 -8 0 12 18 45 39 33 21 78 58 99 81 34 38 106 170 106 195 0 6
26 16 58 22 31 7 66 15 78 18 16 5 23 -1 40 -37 36 -81 93 -51 115 63 6 32 15
59 19 59 4 0 15 -9 25 -20 20 -23 50 -26 62 -7 4 6 10 35 13 62 4 41 9 50 25
51 11 1 26 2 33 3 24 2 45 73 45 151 0 93 -21 164 -79 272 l-46 83 36 215 c70
418 63 393 120 388 27 -3 31 -10 60 -89 34 -95 46 -113 87 -135 50 -25 94 -17
200 37 108 56 165 109 209 195 22 43 25 62 25 154 0 151 -3 154 -337 494 -320
326 -340 341 -458 341 -93 -1 -138 -22 -203 -96 l-46 -52 -78 35 c-175 80
-314 104 -546 95 -172 -7 -262 -26 -391 -83 -94 -42 -126 -51 -126 -35 0 20
-73 92 -114 113 -51 26 -148 33 -197 15z m201 -122 c22 -21 42 -47 45 -56 4
-12 -17 -40 -67 -91 -159 -159 -237 -331 -263 -575 -7 -61 -15 -72 -42 -55 -8
5 -9 30 -1 97 12 97 0 233 -28 324 -18 61 -18 157 2 214 18 55 91 139 143 168
28 15 51 19 103 16 63 -2 70 -5 108 -42z m1578 30 c92 -39 172 -163 172 -267
0 -31 -10 -96 -22 -145 -21 -88 -29 -250 -18 -353 5 -43 4 -45 -20 -45 -24 0
-25 3 -32 90 -16 203 -108 397 -260 548 -37 37 -68 71 -68 76 0 16 52 73 85
92 37 23 112 25 163 4z m-749 -5 c123 -13 197 -33 297 -81 235 -111 392 -319
440 -584 24 -134 21 -168 -47 -550 -17 -93 -32 -171 -33 -173 -2 -1 -59 53
-127 120 -68 68 -177 167 -242 221 -65 54 -124 109 -133 122 -8 12 -21 63 -28
114 -9 61 -22 105 -40 135 -72 123 -214 170 -334 110 -96 -48 -144 -126 -161
-258 -6 -49 -17 -89 -29 -105 -10 -14 -72 -70 -138 -125 -65 -54 -172 -152
-238 -218 -65 -65 -120 -117 -123 -114 -3 3 -25 123 -50 268 -39 229 -44 275
-39 358 14 244 124 455 309 595 191 143 419 196 716 165z m-1289 -282 c0 -18
9 -69 20 -113 45 -177 36 -352 -29 -545 -40 -122 -52 -127 -166 -69 -148 75
-214 173 -202 301 3 32 15 77 27 101 21 39 325 357 342 357 4 0 8 -15 8 -32z
m2474 -128 c166 -169 192 -208 203 -298 14 -123 -55 -226 -202 -301 -82 -42
-89 -44 -113 -30 -28 16 -49 67 -88 218 -28 111 -32 259 -8 361 8 36 20 98 26
138 7 39 15 72 18 72 3 0 77 -72 164 -160z m-1279 -221 c80 -22 123 -84 136
-196 14 -127 42 -167 214 -304 94 -75 310 -287 351 -344 16 -22 32 -42 35 -45
36 -30 140 -262 125 -278 -3 -2 -23 14 -45 37 -22 23 -47 41 -55 41 -24 0 -48
-31 -41 -54 44 -153 44 -179 3 -147 -58 46 -83 19 -75 -83 3 -41 3 -77 0 -80
-3 -3 -13 -1 -23 4 -12 6 -38 2 -86 -15 -82 -29 -117 -30 -255 -8 -75 12 -166
17 -329 17 -163 0 -254 -5 -329 -17 -138 -22 -173 -21 -255 8 -49 17 -74 21
-87 15 -26 -15 -31 1 -23 80 9 98 -16 125 -74 79 -27 -21 -27 -21 -30 -1 -3
17 19 116 34 155 6 17 -21 47 -42 47 -8 0 -32 -18 -54 -40 -21 -22 -41 -36
-44 -32 -9 14 39 139 78 203 84 138 226 287 448 472 65 53 128 112 142 130 28
37 56 125 56 176 1 76 54 151 127 176 47 17 49 17 98 4z m229 -1554 c60 -8
111 -17 114 -20 12 -11 -46 -111 -90 -157 -59 -61 -133 -95 -230 -108 -149
-19 -299 27 -373 113 -36 41 -85 126 -85 146 0 36 458 54 664 26z m-728 -395
c93 -17 178 -32 189 -35 19 -4 20 -12 20 -119 0 -115 0 -116 -25 -121 -79 -17
-320 -55 -346 -55 -19 0 -38 8 -50 21 -17 19 -19 37 -19 161 0 135 1 140 24
159 13 10 27 19 31 19 4 0 83 -14 176 -30z m1113 11 c27 -27 33 -71 29 -194
-4 -137 -15 -152 -103 -144 -33 3 -122 17 -198 31 -76 14 -139 26 -140 26 -1
0 -2 52 -2 115 0 63 0 115 0 116 0 1 363 67 378 68 9 1 26 -8 36 -18z m-566
-14 c50 -21 60 -41 65 -126 9 -151 -20 -184 -158 -184 -137 0 -160 23 -160
164 0 96 16 134 63 148 49 14 154 13 190 -2z"/>
<path d="M2535 4063 c-74 -38 -114 -112 -118 -215 l-2 -63 40 -19 c28 -14 61
-20 115 -20 64 0 82 4 128 28 55 31 102 82 102 113 0 23 -43 111 -68 139 -45
52 -136 69 -197 37z"/>
<path d="M3722 4065 c-19 -8 -42 -25 -53 -37 -27 -31 -69 -118 -69 -143 0 -25
71 -96 119 -120 46 -23 161 -23 219 0 42 17 42 17 42 69 0 64 -20 134 -50 176
-43 61 -138 85 -208 55z"/>
<path d="M3150 3283 c-208 -18 -332 -105 -360 -252 -23 -120 25 -204 162 -283
136 -78 167 -91 228 -96 68 -5 110 9 232 77 160 89 190 126 196 245 3 75 1 85
-26 136 -40 76 -105 123 -201 148 -79 21 -170 31 -231 25z m213 -107 c119 -36
185 -133 158 -233 -13 -47 -47 -81 -126 -124 -188 -103 -203 -104 -349 -23
-116 64 -143 86 -162 131 -19 44 -17 80 5 129 33 72 81 104 191 131 67 16 216
10 283 -11z"/>
<path d="M5095 5045 c-16 -8 -97 -40 -180 -71 -82 -31 -152 -58 -154 -61 -3
-2 11 -19 30 -39 30 -30 39 -33 60 -25 21 8 31 3 81 -46 51 -51 55 -58 45 -80
-9 -21 -6 -28 26 -61 20 -20 38 -34 41 -32 2 3 36 95 74 205 73 207 76 226 28
224 -11 0 -34 -7 -51 -14z"/>
<path d="M1153 4979 c-13 -13 -6 -34 84 -259 30 -74 59 -139 64 -145 7 -7 20
1 39 23 22 26 28 40 24 65 -5 28 1 38 45 81 43 42 54 48 79 43 24 -5 35 0 57
23 34 36 28 54 -22 68 -21 6 -105 33 -187 61 -163 56 -167 56 -183 40z"/>
<path d="M5497 4856 c-3 -7 -8 -33 -12 -57 -6 -40 -4 -47 27 -81 28 -32 40
-38 80 -40 26 -1 50 1 54 4 11 12 -37 63 -64 68 -22 5 -27 10 -24 33 2 16 -6
40 -18 57 -23 33 -35 37 -43 16z"/>
<path d="M916 4688 l-79 -111 29 -24 c38 -30 45 -29 73 12 13 20 28 32 35 28
23 -14 192 -137 212 -155 21 -18 21 -18 48 16 14 19 26 39 26 45 0 5 -51 47
-112 91 -62 45 -114 86 -116 91 -2 5 6 21 17 35 12 15 21 32 21 39 0 15 -43
45 -62 44 -7 0 -49 -50 -92 -111z"/>
<path d="M5230 4758 c-24 -13 -57 -40 -74 -61 -26 -32 -31 -49 -34 -105 -4
-62 -2 -70 30 -117 18 -27 51 -60 73 -72 45 -25 121 -31 148 -10 16 11 16 15
-8 47 -20 27 -33 35 -60 36 -63 2 -108 68 -85 124 32 76 121 104 177 56 24
-21 28 -31 28 -79 0 -41 6 -63 22 -84 l21 -28 23 22 c17 17 24 37 27 82 4 51
1 67 -21 103 -61 103 -167 137 -267 86z"/>
<path d="M756 4444 c-9 -20 -16 -37 -14 -39 7 -4 148 -82 191 -105 29 -15 50
-34 54 -48 6 -24 -19 -69 -43 -79 -12 -5 -148 59 -230 108 l-32 19 -21 -35
c-12 -20 -21 -40 -21 -44 0 -4 56 -38 123 -75 104 -55 132 -66 172 -66 44 0
52 4 90 44 63 65 75 154 28 205 -29 31 -239 151 -265 151 -8 0 -22 -16 -32
-36z"/>
<path d="M5478 4347 c-92 -45 -167 -87 -167 -94 -1 -17 31 -83 40 -83 4 0 33
14 64 31 51 28 59 30 72 16 13 -13 10 -23 -31 -85 -25 -39 -46 -76 -46 -82 0
-18 40 -90 50 -90 5 0 15 10 21 23 7 12 30 50 53 85 34 53 43 62 61 56 38 -14
110 -7 153 15 l42 22 -16 32 c-29 56 -31 57 -79 36 -51 -22 -88 -18 -110 14
-8 12 -15 25 -15 29 0 4 27 21 60 38 33 17 60 35 60 40 0 14 -33 80 -39 79 -3
0 -81 -37 -173 -82z"/>
<path d="M572 4063 c-25 -65 -25 -67 24 -87 56 -23 78 -54 69 -96 -8 -36 -10
-36 -75 -10 -28 11 -56 20 -63 20 -18 0 -50 -90 -34 -95 7 -2 85 -29 175 -59
90 -31 169 -56 177 -56 15 0 40 64 32 83 -3 7 -32 22 -66 32 -51 17 -61 24
-59 40 2 16 16 22 68 32 112 22 107 19 125 74 9 27 15 52 13 55 -3 2 -49 -6
-103 -18 -95 -21 -99 -21 -109 -4 -26 43 -50 68 -84 85 -68 34 -78 34 -90 4z"/>
<path d="M5648 3971 c-92 -31 -170 -59 -173 -63 -4 -3 10 -57 30 -118 l38
-112 36 7 c20 4 39 10 43 13 4 4 -2 32 -12 62 -26 74 -25 87 7 94 30 8 38 0
55 -59 16 -54 18 -56 61 -43 41 13 42 16 22 73 -19 52 -19 71 1 79 29 11 32 7
54 -63 l22 -69 37 12 c20 7 37 19 39 27 4 25 -65 214 -79 215 -8 1 -89 -24
-181 -55z"/>
<path d="M1525 1225 c-55 -85 -101 -160 -102 -167 -2 -12 59 -59 75 -58 4 1
24 28 46 60 58 90 71 79 67 -50 l-3 -86 41 -27 c22 -15 45 -27 51 -27 6 0 10
39 10 100 0 87 2 101 18 107 60 20 102 48 130 87 18 24 32 46 32 49 0 2 -19
17 -41 32 -40 26 -42 26 -52 9 -36 -64 -99 -91 -141 -61 -17 13 -16 17 18 70
20 31 36 60 36 66 0 9 -65 51 -78 51 -4 0 -52 -70 -107 -155z"/>
<path d="M4581 1366 c-9 -11 -3 -61 28 -222 23 -114 43 -209 45 -211 2 -3 22
8 45 22 34 23 39 31 35 54 -5 23 0 33 33 58 75 59 88 65 115 52 21 -9 31 -7
62 13 19 12 36 28 36 33 0 6 -37 30 -82 55 -151 83 -173 95 -229 128 -64 36
-72 38 -88 18z"/>
<path d="M4337 1209 c-29 -15 -37 -24 -31 -37 31 -75 29 -128 -6 -150 -28 -17
-35 -11 -67 54 -24 50 -29 55 -52 49 -14 -4 -36 -13 -48 -21 l-23 -14 85 -169
c46 -93 89 -172 94 -176 9 -5 91 29 91 38 0 1 -13 29 -30 60 -35 68 -37 87
-10 87 19 0 127 -64 142 -84 8 -12 108 34 108 49 0 6 -37 33 -82 61 -64 38
-82 55 -80 70 10 59 5 114 -13 156 -11 27 -24 48 -30 48 -5 -1 -27 -10 -48
-21z"/>
<path d="M1955 1097 c-23 -13 -52 -43 -70 -71 -25 -42 -30 -59 -30 -116 0 -56
4 -73 28 -108 75 -114 252 -123 333 -17 28 38 55 120 49 152 -2 10 -6 30 -10
45 -7 37 -59 95 -106 119 -54 27 -142 26 -194 -4z m139 -81 c62 -26 83 -85 51
-146 -30 -57 -86 -75 -144 -45 -75 38 -57 159 29 194 14 5 26 10 28 10 1 1 18
-5 36 -13z"/>
<path d="M3835 1001 c-51 -23 -101 -75 -116 -119 -28 -83 20 -207 95 -245 128
-66 296 13 296 140 l0 45 -32 -7 c-50 -11 -65 -22 -71 -53 -6 -32 -43 -55 -86
-55 -92 0 -146 136 -75 192 40 32 82 36 114 13 25 -19 31 -20 71 -8 23 7 45
18 46 23 6 16 -74 80 -109 87 -51 10 -91 6 -133 -13z"/>
<path d="M2395 988 c-3 -7 -16 -62 -30 -123 -14 -60 -33 -141 -41 -178 -9 -37
-14 -71 -11 -74 10 -9 159 -42 193 -43 71 0 151 60 174 134 20 61 9 147 -24
190 -34 45 -63 60 -152 81 -38 8 -77 18 -87 21 -9 3 -19 -1 -22 -8z m175 -143
c48 -49 24 -150 -43 -174 -33 -12 -87 -4 -93 14 -4 10 25 145 41 192 6 18 64
-2 95 -32z"/>
<path d="M3500 926 c-69 -12 -78 -22 -66 -72 5 -17 13 -24 30 -24 21 0 24 -6
35 -87 7 -49 15 -98 18 -110 4 -17 0 -22 -19 -25 -20 -3 -23 -7 -20 -43 2 -22
6 -42 8 -44 5 -5 184 26 192 33 3 3 1 23 -4 44 -7 30 -13 36 -31 34 -24 -3
-25 -3 -42 109 -15 93 -14 106 10 112 17 5 20 11 15 29 -3 13 -6 31 -6 41 0
20 -20 20 -120 3z"/>
<path d="M2964 887 c-2 -7 -3 -36 0 -63 2 -27 5 -113 5 -191 1 -143 1 -143 24
-139 12 3 34 5 50 5 l27 1 0 87 0 87 43 -42 c23 -23 46 -42 51 -42 5 0 24 18
44 40 19 22 37 38 41 35 3 -3 6 -25 7 -48 0 -23 2 -59 2 -79 l2 -38 50 0 51 0
-3 197 c-3 227 -8 237 -75 162 -21 -23 -57 -63 -80 -88 l-43 -46 -82 88 c-82
86 -104 100 -114 74z"/>
</g>
</svg>
